<?xml version="1.0" standalone="no"?>
<!DOCTYPE svg PUBLIC "-//W3C//DTD SVG 20010904//EN"
 "http://www.w3.org/TR/2001/REC-SVG-20010904/DTD/svg10.dtd">
<svg version="1.0" xmlns="http://www.w3.org/2000/svg"
 width="4096.000000pt" height="4096.000000pt" viewBox="0 0 4096.000000 4096.000000"
 preserveAspectRatio="xMidYMid meet">
<g transform="translate(0.000000,4096.000000) scale(0.100000,-0.100000)"
fill="#000000" stroke="none">
<path d="M8927 33269 c-322 -42 -607 -180 -831 -405 -195 -194 -325 -435 -385
-709 l-26 -120 0 -11560 0 -11560 23 -100 c32 -142 57 -214 117 -340 190 -396
556 -677 1005 -772 81 -17 355 -18 6305 -18 l6220 0 3 4953 2 4952 -1670 0
-1670 0 0 1935 0 1935 1670 0 1670 0 0 1583 c0 1615 3 1775 40 2090 147 1252
604 2258 1357 2988 787 762 1849 1195 3138 1279 312 20 1158 11 1825 -20 606
-28 1447 -92 1553 -118 l27 -7 0 -1725 0 -1725 -1207 -5 c-1184 -5 -1211 -6
-1360 -28 -323 -47 -583 -136 -783 -268 -89 -58 -223 -184 -286 -268 -149
-198 -239 -439 -288 -778 -28 -185 -36 -588 -36 -1810 l0 -1188 1915 0 c1053
0 1915 -3 1915 -6 0 -3 -18 -144 -40 -313 -22 -168 -58 -448 -81 -621 -22
-173 -58 -450 -79 -615 -21 -165 -57 -444 -80 -620 -52 -406 -110 -857 -160
-1240 -21 -165 -42 -327 -45 -360 -4 -33 -9 -68 -11 -77 -5 -17 -93 -18 -1670
-18 l-1664 0 2 -4952 3 -4953 3350 0 c3247 0 3353 1 3440 19 574 121 1001 548
1121 1121 19 88 19 373 19 11655 0 11095 -1 11568 -18 11650 -96 452 -374 814
-772 1005 -123 59 -195 84 -335 117 l-95 23 -11530 1 c-6543 1 -11559 -2
-11598 -7z"/>
</g>
</svg>
