<?xml version="1.0" standalone="no"?>
<!DOCTYPE svg PUBLIC "-//W3C//DTD SVG 20010904//EN"
 "http://www.w3.org/TR/2001/REC-SVG-20010904/DTD/svg10.dtd">
<svg version="1.0" xmlns="http://www.w3.org/2000/svg"
 width="512.000000pt" height="512.000000pt" viewBox="0 0 512.000000 512.000000"
 preserveAspectRatio="xMidYMid meet">
<g transform="translate(0.000000,512.000000) scale(0.100000,-0.100000)"
fill="#000000" stroke="none">
<path d="M2338 4105 c-392 -56 -748 -254 -1000 -554 -180 -216 -294 -456 -350
-736 -30 -147 -31 -431 -4 -575 84 -435 330 -809 693 -1052 139 -93 347 -188
413 -188 15 0 36 10 48 23 21 22 22 33 22 189 l0 166 -37 -9 c-21 -5 -79 -9
-130 -9 -107 0 -187 21 -256 69 -58 39 -84 74 -132 175 -36 77 -83 132 -190
223 -31 27 -35 35 -26 47 38 45 153 19 232 -52 28 -25 68 -71 89 -102 50 -73
110 -125 168 -144 59 -21 162 -19 231 2 l54 17 17 64 c10 35 32 83 49 107 17
25 31 46 31 48 0 2 -26 6 -57 9 -92 10 -211 45 -303 89 -67 32 -101 57 -161
117 -128 128 -185 278 -196 511 -8 190 28 322 121 443 l36 48 -16 81 c-21 104
-11 222 28 322 11 28 12 29 75 23 76 -7 198 -55 301 -119 l74 -45 76 18 c188
45 456 45 644 0 l76 -18 38 24 c138 85 285 143 366 143 45 0 51 -11 75 -135
16 -85 13 -183 -7 -253 -12 -37 -11 -41 25 -88 95 -123 131 -254 122 -443 -10
-233 -68 -384 -196 -512 -60 -60 -94 -85 -161 -117 -89 -43 -206 -77 -303 -88
-31 -4 -57 -9 -57 -11 0 -2 12 -20 26 -38 14 -19 35 -58 47 -87 20 -49 22 -74
25 -348 3 -283 4 -296 24 -317 30 -32 70 -29 174 13 202 81 376 196 534 354
253 254 409 568 455 918 66 501 -99 986 -455 1342 -225 225 -500 373 -815 440
-131 28 -398 35 -537 15z"/>
</g>
</svg>
